# xmcd
#
# Track frame offsets:
#	150
#	26013
#	41292
#	59688
#	74809
#	92637
#	111086
#	133360
#	155073
#	170707
#	191445
#	209063
#	229987
#	251688
#	272964
#	291002
#	311373
#	329142
#
# Disc length: 4642 seconds
#
# Revision: 0
# Processed by: cddbd v1.5.2PL0 Copyright (c) Steve Scherf et al.
# Submitted via: audiograbber 1.83.01
#
DISCID=27122012
DTITLE=Zucchero - Zucchero and Co
DYEAR=2004
DGENRE=Rock
TTITLE0=Zucchero feat. Miles Davies - Dune mosse
TTITLE1=Zucchero feat. Sting - Muoio per te
TTITLE2=Zucchero feat. Vanessa Carlton - Everybody's got to learn sometime
TTITLE3=Zucchero feat. Mousse T. - Mama get real
TTITLE4=Zucchero feat. Macy Gray - Like the sun
TTITLE5=Zucchero feat. Maná - Baila morena
TTITLE6=Zucchero feat. John Lee Hooker - I lay down
TTITLE7=Zucchero feat. Sheryl Crow - Blue
TTITLE8=Zucchero feat. Dolores O'Riordan - Pure love
TTITLE9=Zucchero feat. Eric Clapton - A wonderful world
TTITLE10=Zucchero feat. Tom Jones - Pippo - Nasty guy
TTITLE11=Zucchero feat. B.B. King - Hey man - Sing a song
TTITLE12=Zucchero feat. Ronan Keating - The flight
TTITLE13=Zucchero feat. Cheb Mami - Così Celeste
TTITLE14=Zucchero feat. Solomon Burke - Diavolo in me - A devil in me
TTITLE15=Zucchero feat. Paul Young - Senza una donna - Without a woman
TTITLE16=Zucchero feat. Brian May - Il mare impetuoso ...
TTITLE17=Zucchero feat. Luciano Pavarotti and Andrea Bocelli - Miserere
EXTD=
EXTT0=
EXTT1=
EXTT2=
EXTT3=
EXTT4=
EXTT5=
EXTT6=
EXTT7=
EXTT8=
EXTT9=
EXTT10=
EXTT11=
EXTT12=
EXTT13=
EXTT14=
EXTT15=
EXTT16=
EXTT17=
PLAYORDER=
